<?xml version="1.0" encoding="utf-8"?>
<!-- Generator: Adobe Illustrator 16.0.4, SVG Export Plug-In . SVG Version: 6.00 Build 0)  -->
<!DOCTYPE svg PUBLIC "-//W3C//DTD SVG 1.1//EN" "http://www.w3.org/Graphics/SVG/1.1/DTD/svg11.dtd">
<svg version="1.1" id="Layer_1" xmlns="http://www.w3.org/2000/svg" xmlns:xlink="http://www.w3.org/1999/xlink" x="0px" y="0px"
	 width="24px" height="24px" viewBox="0 0 24 24" enable-background="new 0 0 24 24" xml:space="preserve">
<g id="icomoon-ignore">
</g>
<path fill="#FFB900" d="M12.056,17.946l4.467-5.209c0.348-0.408,0.348-1.068,0-1.475l-4.467-5.21c-0.349-0.407-0.914-0.407-1.264,0
	c-0.348,0.407-0.348,1.066,0,1.474l2.942,3.433H5.173c-0.494,0-0.894,0.465-0.894,1.041c0,0.575,0.399,1.042,0.894,1.042h8.561
	l-2.942,3.432c-0.173,0.205-0.261,0.47-0.261,0.737c0,0.266,0.087,0.532,0.261,0.737C11.141,18.354,11.707,18.354,12.056,17.946z"/>
</svg>
